<svg width="35" height="35" viewBox="0 0 35 35" fill="none" xmlns="http://www.w3.org/2000/svg">
<rect width="35" height="35" fill="#FAF9F5"/>
<g clip-path="url(#clip0_41_648)">
<path d="M17.5025 13.6489C15.3756 13.6489 13.6538 15.3727 13.6538 17.4977C13.6538 19.6246 15.3775 21.3464 17.5025 21.3464C19.6294 21.3464 21.3513 19.6227 21.3513 17.4977C21.3513 15.3708 19.6275 13.6489 17.5025 13.6489ZM17.5025 19.9958C16.1219 19.9958 15.0044 18.8777 15.0044 17.4977C15.0044 16.1177 16.1225 14.9996 17.5025 14.9996C18.8825 14.9996 20.0006 16.1177 20.0006 17.4977C20.0013 18.8777 18.8831 19.9958 17.5025 19.9958Z" fill="#FEE600"/>
<path d="M20.5925 10.0476C19.2125 9.98323 15.7944 9.98635 14.4131 10.0476C13.1994 10.1045 12.1287 10.3976 11.2656 11.2607C9.82311 12.7032 10.0075 14.647 10.0075 17.4976C10.0075 20.4151 9.84499 22.3139 11.2656 23.7345C12.7137 25.182 14.6856 24.9926 17.5025 24.9926C20.3925 24.9926 21.39 24.9945 22.4119 24.5989C23.8012 24.0595 24.85 22.8176 24.9525 20.587C25.0175 19.2064 25.0137 15.7889 24.9525 14.4076C24.8287 11.7745 23.4156 10.1776 20.5925 10.0476ZM22.7769 22.7801C21.8312 23.7257 20.5194 23.6414 17.4844 23.6414C14.3594 23.6414 13.1062 23.6876 12.1919 22.7707C11.1387 21.7226 11.3294 20.0395 11.3294 17.4876C11.3294 14.0345 10.975 11.5476 14.4406 11.3701C15.2369 11.342 15.4712 11.3326 17.4756 11.3326L17.5037 11.3514C20.8344 11.3514 23.4475 11.0026 23.6044 14.4676C23.64 15.2582 23.6481 15.4957 23.6481 17.497C23.6475 20.5857 23.7062 21.8464 22.7769 22.7801Z" fill="#FEE600"/>
<path d="M21.5037 14.3964C22.0005 14.3964 22.4031 13.9937 22.4031 13.497C22.4031 13.0003 22.0005 12.5977 21.5037 12.5977C21.007 12.5977 20.6044 13.0003 20.6044 13.497C20.6044 13.9937 21.007 14.3964 21.5037 14.3964Z" fill="#FEE600"/>
</g>
<defs>
<clipPath id="clip0_41_648">
<rect width="15" height="15" fill="white" transform="translate(10 10)"/>
</clipPath>
</defs>
</svg>
