<svg width="68" height="68" viewBox="0 0 68 68" fill="none" xmlns="http://www.w3.org/2000/svg">
<g filter="url(#filter0_dd_41_1543)">
<path d="M35.1719 24.6094C35.1719 25.2567 34.6473 25.7812 34 25.7812C33.3527 25.7812 32.8281 25.2567 32.8281 24.6094C32.8281 23.9621 33.3527 23.4375 34 23.4375C34.6473 23.4375 35.1719 23.9621 35.1719 24.6094Z" fill="#FCFDF8"/>
<path d="M4 55.7812V58.8281C4 59.4754 4.5246 60 5.17188 60H23.9219C24.5692 60 25.0938 59.4754 25.0938 58.8281V55.7812C25.0938 49.9759 20.3966 45.2344 14.5469 45.2344C8.73145 45.2344 4 49.9658 4 55.7812ZM14.5469 47.5781C19.0613 47.5781 22.75 51.2306 22.75 55.7812V57.6562H6.34375V55.7812C6.34375 51.2581 10.0237 47.5781 14.5469 47.5781Z" fill="#FCFDF8"/>
<path d="M53.4531 45.2344C47.6377 45.2344 42.9062 49.9658 42.9062 55.7812V58.8281C42.9062 59.4754 43.4308 60 44.0781 60H62.8281C63.4754 60 64 59.4754 64 58.8281V55.7812C64 49.9759 59.3029 45.2344 53.4531 45.2344ZM61.6562 57.6562H45.25V55.7812C45.25 51.2581 48.93 47.5781 53.4531 47.5781C57.9676 47.5781 61.6562 51.2306 61.6562 55.7812V57.6562Z" fill="#FCFDF8"/>
<path d="M60.4844 38.2031C60.4844 34.7255 57.9461 31.8311 54.625 31.2712V24.6094C54.625 22.6707 53.048 21.0938 51.1094 21.0938H43.9449C42.5107 17.0398 38.6477 14.0625 34 14.0625C29.4947 14.0625 25.5277 16.9107 24.0537 21.0938H16.8906C14.952 21.0938 13.375 22.6707 13.375 24.6094V31.2712C10.0539 31.8311 7.51562 34.7255 7.51562 38.2031C7.51562 42.0804 10.6696 45.2344 14.5469 45.2344C18.4241 45.2344 21.5781 42.0804 21.5781 38.2031C21.5781 34.7255 19.0398 31.8311 15.7188 31.2712V24.6094C15.7188 23.963 16.2443 23.4361 16.8906 23.4361H23.519C23.476 23.8248 23.4531 24.2175 23.4531 24.6094V30C23.4531 30.6473 23.9777 31.1719 24.625 31.1719H43.375C44.0223 31.1719 44.5469 30.6473 44.5469 30V24.6094C44.5469 24.2175 44.524 23.8261 44.481 23.4375H51.1094C51.7557 23.4375 52.2812 23.963 52.2812 24.6094V31.2712C48.9602 31.8311 46.4219 34.7255 46.4219 38.2031C46.4219 42.0804 49.5759 45.2344 53.4531 45.2344C57.3304 45.2344 60.4844 42.0804 60.4844 38.2031ZM19.2344 38.2031C19.2344 40.7877 17.1314 42.8906 14.5469 42.8906C11.9623 42.8906 9.85938 40.7877 9.85938 38.2031C9.85938 35.6186 11.9623 33.5156 14.5469 33.5156C17.1314 33.5156 19.2344 35.6186 19.2344 38.2031ZM42.2031 28.8281H25.7969V24.6094C25.7969 23.9159 25.8839 23.2251 26.0551 22.5577C26.8886 19.3195 29.589 16.9565 32.8281 16.4914V19.9219C32.8281 20.5692 33.3527 21.0938 34 21.0938C34.6473 21.0938 35.1719 20.5692 35.1719 19.9219V16.49C38.4957 16.9629 41.1365 19.4179 41.9449 22.5577C42.1161 23.226 42.2031 23.9163 42.2031 24.6094V28.8281ZM53.4531 42.8906C50.8686 42.8906 48.7656 40.7877 48.7656 38.2031C48.7656 35.6186 50.8686 33.5156 53.4531 33.5156C56.0377 33.5156 58.1406 35.6186 58.1406 38.2031C58.1406 40.7877 56.0377 42.8906 53.4531 42.8906Z" fill="#FCFDF8"/>
<path d="M41.0312 7.03125C41.0312 3.15399 37.8773 0 34 0C30.1227 0 26.9688 3.15399 26.9688 7.03125C26.9688 10.9085 30.1227 14.0625 34 14.0625C37.8773 14.0625 41.0312 10.9085 41.0312 7.03125ZM34 11.7188C31.4155 11.7188 29.3125 9.61578 29.3125 7.03125C29.3125 4.44672 31.4155 2.34375 34 2.34375C36.5845 2.34375 38.6875 4.44672 38.6875 7.03125C38.6875 9.61578 36.5845 11.7188 34 11.7188Z" fill="#FCFDF8"/>
</g>
<defs>
<filter id="filter0_dd_41_1543" x="0" y="0" width="68" height="68" filterUnits="userSpaceOnUse" color-interpolation-filters="sRGB">
<feFlood flood-opacity="0" result="BackgroundImageFix"/>
<feColorMatrix in="SourceAlpha" type="matrix" values="0 0 0 0 0 0 0 0 0 0 0 0 0 0 0 0 0 0 127 0" result="hardAlpha"/>
<feOffset dy="4"/>
<feGaussianBlur stdDeviation="2"/>
<feComposite in2="hardAlpha" operator="out"/>
<feColorMatrix type="matrix" values="0 0 0 0 0 0 0 0 0 0 0 0 0 0 0 0 0 0 0.25 0"/>
<feBlend mode="normal" in2="BackgroundImageFix" result="effect1_dropShadow_41_1543"/>
<feColorMatrix in="SourceAlpha" type="matrix" values="0 0 0 0 0 0 0 0 0 0 0 0 0 0 0 0 0 0 127 0" result="hardAlpha"/>
<feOffset dy="4"/>
<feGaussianBlur stdDeviation="2"/>
<feComposite in2="hardAlpha" operator="out"/>
<feColorMatrix type="matrix" values="0 0 0 0 0 0 0 0 0 0 0 0 0 0 0 0 0 0 0.25 0"/>
<feBlend mode="normal" in2="effect1_dropShadow_41_1543" result="effect2_dropShadow_41_1543"/>
<feBlend mode="normal" in="SourceGraphic" in2="effect2_dropShadow_41_1543" result="shape"/>
</filter>
</defs>
</svg>
